<?xml version="1.0" standalone="no"?>
<!DOCTYPE svg PUBLIC "-//W3C//DTD SVG 20010904//EN"
 "http://www.w3.org/TR/2001/REC-SVG-20010904/DTD/svg10.dtd">
<svg version="1.0" xmlns="http://www.w3.org/2000/svg"
 width="500.000000pt" height="500.000000pt" viewBox="0 0 500.000000 500.000000"
 preserveAspectRatio="xMidYMid meet">
<metadata>
Created by potrace 1.14, written by Peter Selinger 2001-2017
</metadata>
<g transform="translate(0.000000,500.000000) scale(0.100000,-0.100000)"
fill="#000000" stroke="none">
<path d="M2578 4465 c-2 -2 -34 -6 -73 -9 -87 -7 -169 -20 -255 -41 -3 -1 -21
-5 -40 -9 -52 -12 -194 -58 -205 -66 -5 -4 -28 -13 -50 -20 -33 -11 -194 -90
-253 -125 -107 -63 -233 -158 -324 -243 l-46 -43 151 -155 c83 -85 153 -154
156 -154 3 0 29 21 56 46 48 45 226 174 239 174 4 0 23 10 44 23 97 61 320
139 462 163 14 2 41 7 60 10 111 20 409 8 510 -21 8 -2 26 -6 40 -9 54 -9 199
-60 280 -98 100 -46 240 -128 240 -141 0 -13 -116 -180 -161 -230 -56 -64
-121 -104 -214 -132 -99 -29 -149 -35 -350 -41 -228 -7 -238 -8 -281 -33 -47
-28 -56 -41 -115 -156 -114 -227 -313 -611 -320 -620 -18 -25 -18 -81 1 -113
52 -85 174 -115 275 -66 79 38 116 79 220 239 53 83 107 161 119 173 57 63
177 93 266 66 26 -8 155 -64 286 -125 132 -61 259 -120 284 -131 25 -11 88
-41 140 -65 52 -25 111 -47 131 -50 36 -5 38 -3 79 57 69 102 312 508 376 630
11 19 22 37 25 40 11 9 97 185 100 205 4 30 -82 182 -158 280 -13 17 -32 40
-41 53 -82 109 -252 271 -387 369 -234 171 -573 310 -847 347 -18 3 -55 8 -83
12 -50 7 -331 14 -337 9z"/>
<path d="M1191 3754 c-32 -37 -151 -200 -151 -207 0 -3 -11 -23 -25 -43 -97
-143 -219 -476 -251 -684 -3 -25 -9 -56 -11 -70 -3 -14 -6 -113 -8 -220 -3
-172 2 -255 20 -349 3 -14 8 -41 11 -60 51 -300 227 -656 446 -903 102 -114
125 -136 228 -223 163 -135 380 -262 549 -321 42 -14 83 -30 92 -34 14 -7 134
-39 214 -56 201 -43 527 -50 701 -14 27 5 60 12 74 14 149 26 381 107 515 180
122 67 212 122 225 137 3 3 25 19 50 36 53 36 68 49 178 150 45 42 82 82 82
88 0 5 -35 42 -77 80 -42 39 -91 84 -108 100 -92 87 -124 115 -130 115 -4 0
-28 -21 -53 -47 -26 -27 -70 -66 -97 -88 -28 -22 -52 -43 -55 -46 -13 -17
-156 -102 -245 -147 -123 -61 -308 -122 -417 -137 -12 -2 -48 -6 -78 -11 -70
-9 -278 -9 -350 0 -30 5 -66 9 -78 11 -101 14 -303 80 -415 136 -140 70 -274
167 -387 279 -58 58 -116 118 -128 133 -51 63 -121 172 -112 175 6 2 31 -3 57
-12 87 -28 79 -35 147 118 35 77 77 156 94 176 82 98 232 101 323 7 21 -23 39
-47 39 -54 0 -17 14 -16 81 6 86 29 161 8 232 -67 l29 -30 49 24 c105 53 216
21 287 -82 l22 -32 41 21 c138 68 306 -28 314 -181 2 -30 -3 -71 -10 -91 -11
-32 -92 -208 -117 -255 -9 -17 -7 -18 45 -14 98 8 172 94 165 192 l-3 40 50
11 c82 19 122 50 148 115 14 36 16 113 4 140 -6 13 2 16 45 16 68 1 119 26
152 73 38 54 47 94 36 153 -6 28 -10 52 -10 53 0 1 21 5 47 9 151 20 215 202
110 314 -18 19 -192 112 -210 112 -3 0 -56 24 -118 54 -63 29 -130 60 -149 69
-19 8 -80 37 -135 62 -197 92 -205 95 -265 82 -66 -14 -104 -47 -161 -145
-131 -223 -263 -351 -378 -368 -14 -2 -37 -5 -51 -7 -59 -9 -171 34 -236 91
-47 40 -67 114 -49 173 12 36 285 590 307 621 21 31 13 39 -34 37 -58 -3 -139
-30 -238 -80 -89 -45 -124 -68 -279 -186 -149 -113 -339 -161 -516 -128 -67
12 -65 6 -39 110 9 33 17 67 19 75 8 35 59 159 95 231 47 95 97 174 160 255
l47 60 -141 121 c-77 67 -151 131 -163 142 -12 12 -24 21 -26 21 -2 0 -14 -12
-26 -26z"/>
<path d="M1823 2002 c-12 -2 -34 -15 -49 -30 -40 -40 -194 -371 -194 -418 0
-32 21 -73 55 -104 22 -21 36 -25 85 -25 49 1 64 5 86 25 44 41 194 369 194
423 0 81 -87 144 -177 129z"/>
<path d="M2146 1885 c-37 -19 -50 -37 -83 -105 -14 -30 -44 -93 -66 -140 -77
-164 -84 -211 -41 -268 32 -42 75 -61 123 -55 75 10 93 33 182 228 72 160 86
198 83 227 -12 96 -116 156 -198 113z"/>
<path d="M2500 1829 c-42 -18 -61 -41 -105 -134 -131 -275 -144 -321 -103
-381 28 -41 72 -62 125 -59 66 4 88 28 157 170 120 244 130 282 96 345 -27 50
-117 82 -170 59z"/>
<path d="M2871 1738 c-72 -12 -71 -11 -205 -302 -51 -111 -58 -145 -36 -194
34 -75 112 -104 183 -68 37 18 48 33 93 121 71 141 121 263 127 312 4 37 1 47
-29 81 -41 48 -75 61 -133 50z"/>
</g>
</svg>
